<svg width="1280" height="214" viewBox="0 0 1280 214" fill="none" xmlns="http://www.w3.org/2000/svg">
<path d="M0 213.491L53.3333 204.567C106.667 195.978 213.333 177.631 320 173.461C426.667 169.291 533.333 177.631 640 191.224C746.667 204.317 853.333 222.664 960 200.148C1066.67 177.631 1173.33 115.919 1226.67 84.479L1280 53.3728V0.000106812H1226.67C1173.33 0.000106812 1066.67 0.000106812 960 0.000106812C853.333 0.000106812 746.667 0.000106812 640 0.000106812C533.333 0.000106812 426.667 0.000106812 320 0.000106812C213.333 0.000106812 106.667 0.000106812 53.3333 0.000106812H0V213.491Z" fill="#000B76"/>
</svg>
