<svg width="1280" height="198" viewBox="0 0 1280 198" fill="none" xmlns="http://www.w3.org/2000/svg">
<path d="M0 79.2L19.3778 72.5794C38.7556 66.2062 77.3333 52.5937 116.444 56.1206C155.111 59.4 193.778 79.2 232.889 75.9206C271.556 72.3937 310.222 46.4062 349.333 59.4C387.911 72.3937 426.667 125.606 465.778 145.221C504.267 165.206 543.111 151.594 582.222 151.779C620.622 151.594 659.556 165.206 697.778 165.021C736.978 165.206 776 151.594 814.222 135.321C853.333 118.8 892.444 99 930.667 75.9206C969.689 52.5937 1008.89 26.6062 1047.11 32.9794C1086.04 39.6 1124.44 79.2 1163.56 89.1C1202.4 99 1240.89 79.2 1260.44 69.3L1280 59.4V0H1260.62C1241.24 0 1202.67 0 1163.56 0C1124.89 0 1086.22 0 1047.11 0C1008.44 0 969.778 0 930.667 0C892.089 0 853.333 0 814.222 0C775.733 0 736.889 0 697.778 0C659.378 0 620.444 0 582.222 0C543.022 0 504 0 465.778 0C426.667 0 387.556 0 349.333 0C310.311 0 271.111 0 232.889 0C193.956 0 155.556 0 116.444 0C77.6 0 39.1111 0 19.5556 0H0V79.2Z" fill="#000B76"/>
</svg>
