<svg width="500" height="500" viewBox="0 0 500 500" fill="none" xmlns="http://www.w3.org/2000/svg">
<path d="M410.094 309.37C406.516 300.9 400.901 293.445 393.748 287.668C385.941 281.354 377.34 276.09 368.165 272.01C356.654 267.311 346.054 262.679 334.657 257.808C334.153 257.589 333.601 257.504 333.055 257.561C332.508 257.617 331.986 257.814 331.538 258.133C319.005 267.189 288.519 275.897 265.835 275.84C239.98 275.776 216.399 269.145 203.323 258.137C202.873 257.819 202.35 257.622 201.802 257.565C201.254 257.509 200.701 257.595 200.197 257.816C188.803 262.68 152.503 279.552 152.226 279.727L150.752 280.657C137.897 276.006 114.837 268.771 103.094 265.027C95.7898 274.084 65.5232 348.304 56.9778 394.815C54.5238 408.253 54.889 434.576 76.9608 445.269C87.5512 450.411 99.5293 450.352 111.142 447.796C121.017 445.619 129.548 439.82 137.494 433.802C142.09 430.316 146.589 426.717 150.991 423.007C153.491 447.438 155.223 471.929 156.186 496.483C220.722 496.483 339.801 496.423 444.029 496.373C440.774 450.491 423.13 342.444 410.094 309.358" fill="white"/>
<path d="M353.477 176.255C354.852 174.438 356.047 172.492 357.047 170.444C360.851 162.83 362.488 154.317 361.78 145.835C361.682 143.667 361.13 141.544 360.158 139.603C359.32 138.197 358.177 136.996 356.813 136.09C355.45 135.183 353.9 134.594 352.279 134.365C350.481 134.097 348.646 134.259 346.923 134.838C345.2 135.418 343.639 136.398 342.369 137.699C340.725 123.459 330.245 105.052 323.614 96.9322C310.341 80.6814 293.909 71.0624 277.162 79.9875C268.114 86.9772 254.52 97.7195 253.315 97.1016C252.249 96.5524 247.462 80.0357 247.339 78.2317C229.158 93.4242 212.057 109.864 196.161 127.433L185.789 134.523C184.528 133.429 183.045 132.62 181.443 132.151C179.84 131.682 178.155 131.564 176.503 131.806C174.882 132.035 173.333 132.624 171.969 133.531C170.605 134.437 169.462 135.638 168.624 137.044C167.653 138.985 167.101 141.109 167.003 143.277C166.294 151.759 167.932 160.273 171.737 167.886C173.53 171.735 176.132 175.151 179.366 177.901C181.947 179.959 185.185 182.219 189.421 181.078L191.19 180.753C194.733 191.993 200.421 202.44 207.94 211.516C213.289 218.076 219.632 223.759 226.737 228.36C226.466 231.895 226.011 235.413 225.373 238.901C224.452 244.112 224.744 248.768 217.498 251.388C217.16 251.513 215.588 252.079 214.987 252.336L202.312 257.255C215.166 268.787 239.299 275.77 265.835 275.835C287.621 275.89 316.605 267.864 329.962 259.206C323.637 256.207 313.705 251.507 313.377 251.388C306.13 248.768 306.409 244.112 305.502 238.901C304.888 235.383 304.428 231.851 304.167 228.313C321.124 217.831 334.283 195.05 336.76 188.328C337.168 187.091 337.995 184.768 338.737 182.007L340.489 182.541C344.238 183.681 346.829 182.513 349.41 180.455C350.927 179.22 352.292 177.811 353.477 176.255Z" fill="white"/>
<path d="M239.086 12.7348C232.511 13.4126 226.024 14.7686 219.728 16.781C200.498 22.4312 187.373 38.0524 187.633 39.0355C187.893 40.0186 195.119 39.3802 196.64 39.3145C184.617 49.6321 176.08 63.4169 172.201 78.778C168.303 94.9557 168.456 125.186 174.508 132.311C175.153 132.075 175.821 131.905 176.5 131.806C178.153 131.564 179.837 131.682 181.44 132.151C183.043 132.62 184.525 133.429 185.786 134.523L196.158 127.432C212.054 109.863 229.153 93.4213 247.333 78.2273C247.456 80.0313 252.243 96.548 253.309 97.0972C254.51 97.7151 268.108 86.9728 277.156 79.9831C293.908 71.0623 310.338 80.6813 323.608 96.9278C330.238 105.048 340.719 123.455 342.368 137.699C343.636 136.396 345.195 135.414 346.918 134.834C348.64 134.254 350.476 134.091 352.273 134.361C353.489 134.542 354.665 134.924 355.756 135.49C361.143 119.568 360.576 90.4567 355.171 73.1658C351.761 62.2482 341.186 46.4342 331.052 42.0928L320.948 33.8981C312.638 15.2005 281.492 4.09885 258.184 3.52185C252.578 3.38746 242.609 3.8958 237.97 7.07C238.965 8.70896 246.366 11.3777 248.52 12.4353C245.372 12.3648 242.223 12.4648 239.086 12.7348Z" fill="#645D5C"/>
<path d="M300.667 228.323C301.061 233.445 301.812 238.559 302.712 243.614C302.986 245.587 303.696 247.473 304.79 249.137C305.884 250.801 307.335 252.201 309.037 253.235C310.094 253.859 311.443 254.103 312.44 254.769C311.142 253.901 312.014 254.601 312.509 254.831C313.872 255.463 315.228 256.1 316.577 256.742C320.448 258.567 324.317 260.396 328.183 262.23C328.991 262.674 329.939 262.792 330.831 262.558C331.724 262.324 332.492 261.756 332.978 260.972C333.44 260.168 333.567 259.214 333.331 258.316C333.096 257.419 332.518 256.65 331.721 256.175C325.772 253.353 319.823 250.528 313.822 247.826C313.53 247.693 313.238 247.547 312.946 247.387C312.772 247.293 311.786 246.682 311.97 246.822C311.685 246.6 311.418 246.355 311.171 246.092C311.012 245.927 310.86 245.756 310.715 245.578C310.926 245.843 310.916 245.811 310.684 245.481C310.516 245.205 310.359 244.928 310.216 244.637C310.043 244.265 310.036 244.25 310.194 244.592C310.121 244.39 310.052 244.187 309.988 243.982C309.768 243.249 309.595 242.503 309.468 241.748C308.674 237.304 308.017 232.821 307.671 228.32C307.649 227.398 307.272 226.519 306.619 225.866C305.967 225.213 305.088 224.837 304.165 224.815C303.238 224.822 302.35 225.194 301.694 225.849C301.038 226.505 300.667 227.393 300.659 228.32L300.667 228.323Z" fill="#211715"/>
<path d="M155.989 500C188.169 500 220.349 499.992 252.528 499.977C293 499.962 333.474 499.945 373.948 499.924L444.029 499.89C448.539 499.89 448.547 492.879 444.029 492.879L319.043 492.937C281.232 492.955 243.42 492.969 205.607 492.981C189.068 492.981 172.528 492.981 155.989 492.981C151.478 492.981 151.471 499.993 155.989 499.993V500Z" fill="#211715"/>
<path d="M333.307 261.159C333.422 261.092 333.64 260.923 333.2 261.013C333.436 261.055 333.663 261.136 333.872 261.253C334.623 261.599 335.394 261.906 336.154 262.232L340.992 264.307C344.071 265.631 347.152 266.951 350.234 268.269C356.399 270.898 362.719 273.266 368.774 276.133C373.901 278.546 378.838 281.344 383.542 284.504C388.265 287.523 392.648 291.044 396.613 295.006C400.98 299.758 404.514 305.212 407.067 311.139C407.541 311.937 408.31 312.516 409.208 312.752C410.106 312.987 411.06 312.859 411.864 312.396C412.65 311.912 413.22 311.144 413.454 310.251C413.688 309.358 413.569 308.409 413.122 307.601C410.548 301.792 407.128 296.396 402.973 291.59C398.653 286.956 393.786 282.866 388.478 279.408C377.451 271.735 365.094 267.053 352.82 261.811C349.089 260.217 345.361 258.618 341.636 257.014C337.846 255.387 333.799 252.71 329.769 255.106C325.892 257.408 329.416 263.472 333.307 261.159Z" fill="#211715"/>
<path d="M200.839 260.612C215.115 272.509 234.599 277.092 252.706 278.738C271.942 280.307 291.297 277.997 309.624 271.947C317.795 269.335 326.276 266.186 333.307 261.159C334.091 260.673 334.658 259.904 334.892 259.012C335.126 258.12 335.009 257.172 334.565 256.364C334.091 255.566 333.322 254.987 332.425 254.752C331.527 254.517 330.573 254.644 329.769 255.106C323.856 259.058 317.403 262.135 310.61 264.242C302.03 267.17 293.216 269.36 284.264 270.789C265.827 273.746 246.962 272.529 229.058 267.227C220.798 264.744 212.479 261.224 205.797 255.654C205.128 255.019 204.241 254.666 203.318 254.666C202.396 254.666 201.509 255.019 200.839 255.654C200.188 256.315 199.823 257.205 199.823 258.133C199.823 259.06 200.188 259.951 200.839 260.612Z" fill="#211715"/>
<path d="M371.774 493.395L375.154 490.821L378.66 494.326C378.611 492.862 378.685 491.396 378.884 489.944C379.097 486.004 379.314 482.064 379.534 478.125C380.253 465.148 380.979 452.17 381.71 439.192C382.601 423.319 383.493 407.442 384.386 391.563C385.178 377.468 385.968 363.374 386.757 349.28C387.184 341.651 387.634 334.021 388.024 326.389C388.037 326.126 388.051 325.862 388.065 325.599C388.279 321.088 381.268 321.1 381.053 325.599C380.74 332.112 380.342 338.623 379.978 345.133C379.221 358.685 378.462 372.236 377.699 385.786C376.805 401.696 375.911 417.606 375.017 433.516C374.255 447.103 373.495 460.69 372.737 474.278C372.372 480.823 371.643 487.47 371.659 494.03C371.649 494.127 371.646 494.225 371.649 494.322C371.682 495.241 372.063 496.113 372.713 496.764C373.363 497.414 374.235 497.794 375.154 497.828C375.921 497.826 376.667 497.573 377.277 497.109C377.887 496.644 378.329 495.993 378.535 495.254C378.752 494.358 378.62 493.414 378.165 492.612C377.71 491.811 376.967 491.213 376.086 490.94C375.19 490.7 374.235 490.823 373.428 491.281C372.62 491.739 372.026 492.497 371.773 493.39L371.774 493.395Z" fill="#211715"/>
<path d="M406.714 310.302C409.981 319.111 412.665 328.125 414.748 337.286C417.816 349.724 420.445 362.265 422.896 374.846C428.301 402.644 432.877 430.753 436.516 458.757C438.14 471.263 439.623 483.803 440.523 496.385C440.544 497.308 440.92 498.187 441.573 498.84C442.226 499.493 443.105 499.869 444.029 499.89C444.956 499.882 445.843 499.51 446.499 498.855C447.154 498.199 447.526 497.312 447.534 496.385C445.749 471.406 442.093 446.509 438.2 421.784C433.871 394.281 428.998 366.792 422.545 339.698C420.254 329.079 417.223 318.634 413.474 308.438C413.204 307.556 412.607 306.811 411.805 306.356C411.003 305.901 410.058 305.77 409.162 305.99C408.269 306.243 407.512 306.837 407.054 307.644C406.596 308.451 406.474 309.406 406.714 310.302Z" fill="#211715"/>
<path d="M345.481 139.561C347.089 138.243 349.147 137.602 351.22 137.775C353.292 137.948 355.216 138.922 356.583 140.489C358.16 142.486 358.308 145.343 358.413 147.776C358.555 150.595 358.408 153.421 357.975 156.209C357.1 161.832 355.114 167.224 352.132 172.07C349.886 175.64 346.172 180.468 341.435 179.165C337.079 177.966 335.219 184.729 339.571 185.925C351.758 189.285 359.749 174.879 362.934 165.329C364.853 159.573 365.689 153.511 365.403 147.451C365.11 141.589 363.547 136.011 358.21 132.826C355.445 131.233 352.251 130.547 349.076 130.866C345.901 131.185 342.907 132.492 340.514 134.603C339.864 135.265 339.5 136.155 339.5 137.082C339.5 138.01 339.864 138.9 340.514 139.561C341.181 140.203 342.072 140.562 342.998 140.562C343.924 140.562 344.814 140.203 345.481 139.561Z" fill="#211715"/>
<path d="M336.693 173.055C336.492 176.5 335.842 179.904 334.759 183.18C334.387 184.41 333.982 185.632 333.569 186.848C333.469 187.14 333.368 187.433 333.263 187.725C333.221 187.839 333.17 187.95 333.127 188.065C332.882 188.734 333.484 187.273 333.167 187.97C331.623 191.31 329.867 194.547 327.908 197.662C322.437 206.822 315.468 214.999 307.291 221.852C302.884 225.573 297.69 228.243 292.099 229.661C287.703 230.672 289.564 237.434 293.963 236.422C305.61 233.743 315.29 225.194 322.886 216.352C329.339 209.057 334.747 200.901 338.954 192.117C341.757 186.132 343.372 179.66 343.71 173.06C343.857 168.548 336.845 168.552 336.699 173.06L336.693 173.055Z" fill="#211715"/>
<path d="M188.265 132.051C186.083 130.131 183.398 128.874 180.525 128.428C177.653 127.981 174.713 128.365 172.051 129.533C166.449 132.016 164.096 137.18 163.52 142.992C162.352 154.824 165.9 168.04 173.627 177.181C177.764 182.075 183.731 186.005 190.347 184.466C194.741 183.443 192.881 176.683 188.483 177.706C183.882 178.775 179.404 173.668 177.142 170.278C173.995 165.434 171.879 159.994 170.926 154.297C170.449 151.515 170.257 148.692 170.354 145.872C170.422 143.422 170.481 140.476 171.914 138.372C172.557 137.514 173.368 136.795 174.297 136.259C175.226 135.724 176.254 135.382 177.319 135.254C178.384 135.127 179.464 135.217 180.493 135.518C181.522 135.82 182.48 136.327 183.307 137.009C183.976 137.645 184.864 138 185.787 138C186.71 138 187.598 137.645 188.267 137.009C188.917 136.348 189.281 135.458 189.281 134.53C189.281 133.603 188.915 132.713 188.265 132.051Z" fill="#211715"/>
<path d="M184.174 164.999C187.427 191.247 202.214 216.978 224.768 231.264C231.161 235.408 238.349 238.173 245.871 239.38C246.767 239.597 247.711 239.465 248.512 239.01C249.314 238.555 249.911 237.812 250.183 236.931C250.424 236.035 250.302 235.08 249.844 234.273C249.385 233.466 248.628 232.872 247.735 232.619C234.881 230.72 223.909 223.385 215.029 214.183C205.754 204.552 198.8 192.932 194.694 180.208C193.787 177.397 193.014 174.549 192.373 171.664C192.098 170.415 191.85 169.161 191.629 167.9C191.524 167.295 191.428 166.689 191.337 166.082C191.302 165.852 191.27 165.621 191.236 165.39C191.323 166.001 191.209 165.161 191.188 164.999C191.16 164.078 190.782 163.202 190.131 162.55C189.479 161.899 188.603 161.521 187.682 161.493C186.754 161.498 185.866 161.87 185.21 162.526C184.554 163.182 184.182 164.07 184.177 164.999H184.174Z" fill="#211715"/>
<path d="M281.724 72.1725C274.608 77.2457 268.032 82.7542 261.088 87.9486C258.328 90.0111 255.514 91.9087 252.615 93.7638C251.976 94.1728 253.249 93.5593 252.862 93.6689C252.338 93.8149 254.008 93.6586 254.284 93.736C253.834 93.609 256.38 94.7016 256.089 95.0405C256.052 94.9568 256.007 94.8766 255.955 94.8009C255.607 94.5424 255.609 94.0034 255.825 94.5599C255.145 92.807 254.545 91.0264 253.977 89.234C253.212 86.8267 252.496 84.4043 251.828 81.9668C251.577 81.048 251.33 80.1292 251.098 79.2031C251.012 78.8511 250.943 78.4932 250.851 78.1411C250.635 77.3129 250.795 77.849 250.832 78.2302C250.81 77.5464 250.591 76.8834 250.202 76.3206C249.813 75.7578 249.27 75.3191 248.638 75.0571C248.006 74.795 247.312 74.7207 246.639 74.8431C245.966 74.9654 245.342 75.2793 244.843 75.747C226.666 90.9405 209.571 107.383 193.682 124.954C190.661 128.293 195.604 133.267 198.639 129.911C214.534 112.34 231.634 95.8987 249.815 80.7062L243.826 78.2229C244.43 82.1743 245.431 86.0547 246.813 89.8052C247.463 91.9101 248.128 94.0224 248.927 96.0732C249.625 97.8524 250.351 99.9223 252.42 100.491C255.445 101.32 258.993 98.0876 261.234 96.4837C265.546 93.3884 269.735 90.1222 273.932 86.8749C277.876 83.8205 281.153 81.1503 285.259 78.2229C286.042 77.7361 286.609 76.9674 286.843 76.075C287.077 75.1826 286.96 74.2345 286.516 73.4258C286.042 72.6289 285.273 72.0505 284.375 71.8152C283.478 71.58 282.524 71.7067 281.719 72.1681L281.724 72.1725Z" fill="#211715"/>
<path d="M297.351 81.1663C307.065 84.1652 314.861 91.6983 321.135 99.411C326.478 106.287 330.871 113.851 334.197 121.899C336.363 126.823 337.914 131.996 338.814 137.3C339.067 138.193 339.662 138.95 340.469 139.408C341.276 139.867 342.231 139.989 343.128 139.748C344.012 139.482 344.759 138.885 345.215 138.082C345.671 137.279 345.8 136.332 345.576 135.436C343.969 125.186 339.375 115.3 334.207 106.388C329.257 97.5344 322.728 89.6626 314.943 83.1617C310.308 79.2622 304.969 76.287 299.215 74.3972C294.894 73.0636 293.046 79.8283 297.351 81.1575V81.1663Z" fill="#211715"/>
<path d="M323.982 32.1364C318.881 20.8887 307.439 13.4389 296.495 8.68565C284.28 3.30631 271.134 0.360047 257.792 0.0117404C254.022 -0.0562891 250.252 0.177691 246.518 0.711437C242.879 1.06235 239.36 2.19865 236.202 4.04194C235.407 4.51811 234.83 5.28704 234.595 6.18383C234.36 7.08061 234.485 8.03382 234.945 8.83902C236.457 10.6469 238.423 12.0194 240.642 12.8152C241.92 13.3995 243.218 13.9399 244.514 14.4848C245.561 14.923 245.692 14.9537 246.756 15.462L248.525 8.92959C233.883 8.70171 218.34 11.8511 205.498 19.0774C200.201 22.0736 195.286 25.6986 190.859 29.8738C188.635 31.9685 185.668 34.535 184.491 37.4375C183.085 40.9038 186.244 42.8072 189.251 43.0365C191.718 43.1185 194.187 43.0463 196.644 42.8203L194.161 36.8313C182.396 46.8837 173.843 60.1696 169.562 75.04C166.024 87.2913 165.472 100.865 166.338 113.523C166.757 119.658 167.473 125.992 170.004 131.651C170.478 132.449 171.247 133.028 172.145 133.263C173.043 133.499 173.997 133.371 174.802 132.909C175.587 132.424 176.156 131.655 176.391 130.762C176.625 129.869 176.506 128.92 176.059 128.112C175.666 127.235 176.205 128.528 175.995 127.957C175.918 127.754 175.84 127.552 175.769 127.349C175.595 126.862 175.436 126.371 175.292 125.875C174.968 124.773 174.708 123.652 174.477 122.526C173.985 120.037 173.643 117.521 173.455 114.991C172.971 108.791 172.926 102.565 173.322 96.3581C173.58 90.7517 174.335 85.1791 175.576 79.7056C179.299 64.9326 187.525 51.6833 199.114 41.7934C201.438 39.8506 199.552 35.6656 196.631 35.8044C195.243 35.873 193.855 35.9841 192.471 36.0352C191.68 36.0629 190.887 36.0834 190.096 36.0615C189.757 36.0527 189.415 36.0454 189.073 36.0089C189.521 36.0819 189.564 36.0848 189.203 36.0176C188.334 35.7576 188.815 36.1725 190.646 37.2622L191.125 39.0312C191.204 39.7148 190.946 39.6564 190.884 40.1311C190.81 40.7154 190.687 40.4452 190.884 40.2158C191.105 39.9587 191.286 39.6315 191.483 39.3525C190.807 40.3093 191.827 38.9552 192.041 38.7054C192.471 38.2088 192.918 37.7253 193.365 37.2447C195.872 34.5946 198.605 32.1679 201.533 29.9921C205.469 27.0504 209.712 24.5424 214.186 22.5116C219.19 20.4121 224.391 18.8154 229.711 17.7452C235.882 16.3946 242.191 15.7866 248.506 15.9339C251.831 15.9865 253.485 10.9381 250.275 9.40141C248.482 8.54103 246.698 7.87931 244.976 7.11827C243.996 6.68004 243.017 6.24182 242.072 5.7364C241.65 5.51145 241.236 5.27334 240.835 5.01625C240.487 4.77182 240.495 4.78448 240.858 5.05423C240.574 4.76987 240.616 4.84924 240.985 5.29233L239.727 10.0894C244.307 7.09489 250.957 7.02186 256.279 7.00579C262.044 7.02045 267.792 7.61357 273.438 8.77621C285.323 11.1587 297.36 15.4241 307.116 22.7833C311.743 26.0976 315.457 30.5287 317.912 35.6642C318.386 36.4619 319.155 37.0411 320.053 37.2765C320.951 37.5118 321.905 37.3844 322.709 36.9218C323.495 36.4402 324.066 35.6746 324.303 34.7837C324.54 33.8928 324.425 32.9449 323.982 32.1364Z" fill="#211715"/>
<path d="M329.29 45.1239C334.926 47.6188 339.369 52.4831 342.941 57.3854C346.861 62.5655 349.899 68.358 351.93 74.5287C355.822 87.2766 356.559 101.212 355.804 114.449C355.56 121.367 354.381 128.22 352.298 134.821C350.837 139.102 357.611 140.94 359.059 136.685C361.056 130.345 362.258 123.781 362.639 117.144C363.213 109.672 363.182 102.166 362.547 94.6987C362.056 87.695 360.895 80.7545 359.08 73.9721C357.12 67.3471 354.094 61.0853 350.122 55.4324C345.72 49.0226 340.107 42.2857 332.834 39.072C332.025 38.6314 331.078 38.5162 330.187 38.7499C329.295 38.9836 328.527 39.5487 328.038 40.3297C327.575 41.1341 327.448 42.0885 327.683 42.9863C327.918 43.884 328.498 44.653 329.296 45.1268L329.29 45.1239Z" fill="#211715"/>
<path d="M145.866 408.132C149.235 437.453 151.505 466.871 152.676 496.385C152.854 500.882 159.865 500.904 159.687 496.385C158.519 466.893 156.249 437.476 152.877 408.132C152.85 407.211 152.472 406.335 151.821 405.683C151.169 405.031 150.293 404.653 149.371 404.626C148.443 404.632 147.555 405.003 146.899 405.66C146.243 406.316 145.871 407.204 145.866 408.132Z" fill="#211715"/>
<path d="M285.992 194.072C285.367 186.88 279.201 182.066 272.359 181.054C268.916 180.459 265.373 180.976 262.243 182.53C259.497 184.039 257.246 186.309 255.76 189.067C255.291 189.87 255.16 190.827 255.396 191.726C255.632 192.626 256.215 193.395 257.018 193.864C257.821 194.334 258.778 194.465 259.677 194.229C260.577 193.993 261.346 193.409 261.815 192.607C262.1 192.103 262.4 191.619 262.733 191.146C262.88 190.944 262.85 190.976 262.645 191.242C262.74 191.122 262.836 191.006 262.937 190.892C263.104 190.703 263.267 190.513 263.441 190.332C263.647 190.117 263.862 189.91 264.082 189.711C264.148 189.652 264.775 189.137 264.41 189.419C264.044 189.701 264.702 189.226 264.769 189.178C265.014 189.018 265.267 188.866 265.524 188.724C265.781 188.582 266.047 188.452 266.316 188.331C265.86 188.537 266.145 188.4 266.447 188.303C266.985 188.135 267.519 188.011 268.067 187.883C268.727 187.736 267.806 187.883 268.229 187.858C268.554 187.836 268.878 187.811 269.204 187.805C269.829 187.794 270.455 187.825 271.076 187.897C270.571 187.837 271.203 187.926 271.395 187.963C271.703 188.023 272.01 188.089 272.315 188.163C272.923 188.318 273.522 188.504 274.11 188.721C274.728 188.94 273.903 188.606 274.267 188.791C274.499 188.909 274.736 189.018 274.966 189.142C275.524 189.441 276.061 189.779 276.573 190.153C276.173 189.86 276.548 190.139 276.731 190.299C276.913 190.458 277.125 190.654 277.315 190.842C277.539 191.068 277.753 191.304 277.955 191.546C277.637 191.169 277.929 191.518 278.065 191.727C278.2 191.936 278.346 192.176 278.472 192.408C278.567 192.586 278.821 193.3 278.64 192.738C278.741 193.051 278.824 193.36 278.916 193.674C279.124 194.389 278.916 193.236 278.986 194.072C279.01 194.994 279.386 195.872 280.039 196.525C280.691 197.177 281.57 197.554 282.492 197.578C283.42 197.571 284.307 197.199 284.963 196.543C285.619 195.887 285.991 194.999 285.998 194.072H285.992Z" fill="#211715"/>
<path d="M272.983 225.434C281.163 226.868 289.97 224.429 293.708 216.377L290.681 218.114C293.572 218.189 296.401 217.274 298.7 215.521C300.354 214.315 301.733 212.773 302.748 210.996C303.764 209.219 304.392 207.248 304.592 205.211C304.912 202.349 304.469 199.452 303.308 196.816C302.146 194.18 300.308 191.898 297.98 190.202C294.162 187.573 289.39 187.495 285.003 188.386C284.559 188.509 284.144 188.718 283.78 189C283.417 189.283 283.113 189.635 282.885 190.036C282.658 190.436 282.512 190.878 282.455 191.335C282.398 191.792 282.432 192.255 282.554 192.699C282.677 193.143 282.885 193.559 283.168 193.922C283.451 194.286 283.803 194.59 284.203 194.817C284.604 195.044 285.045 195.191 285.502 195.248C285.959 195.304 286.423 195.271 286.867 195.148C287.819 194.933 288.793 194.83 289.769 194.842C290.266 194.838 290.762 194.865 291.255 194.923C290.604 194.842 291.877 195.069 292.003 195.106C292.412 195.211 292.815 195.342 293.208 195.497C292.644 195.272 293.253 195.531 293.462 195.651C293.797 195.842 294.114 196.055 294.441 196.257C294.76 196.489 294.746 196.476 294.397 196.219C294.537 196.338 294.675 196.459 294.809 196.583C295.054 196.837 295.298 197.12 295.558 197.358C295.805 197.659 295.789 197.627 295.509 197.266C295.614 197.405 295.716 197.547 295.814 197.69C296.137 198.192 296.426 198.702 296.712 199.228C297.184 200.091 296.67 198.967 296.851 199.507C296.951 199.799 297.069 200.091 297.164 200.384C297.328 200.9 297.464 201.425 297.57 201.957C297.615 202.18 297.641 202.41 297.69 202.633C297.447 201.492 297.659 202.271 297.663 202.576C297.674 203.228 297.681 204.433 297.646 204.675C297.568 205.189 297.451 205.696 297.295 206.192C297.262 206.297 296.904 207.239 297.132 206.716C296.944 207.136 296.725 207.541 296.476 207.928C296.356 208.117 296.231 208.301 296.102 208.481C296.32 208.206 296.3 208.223 296.042 208.533C295.246 209.565 294.167 210.341 292.936 210.768C293.775 210.393 292.719 210.818 292.542 210.87C292.232 210.964 291.905 211.006 291.598 211.104C291.034 211.282 292.374 211.157 291.452 211.104C291.198 211.091 290.944 211.104 290.688 211.089C290.074 211.078 289.468 211.234 288.935 211.539C288.402 211.845 287.962 212.289 287.662 212.825C287.209 213.984 286.527 215.041 285.656 215.931C284.786 216.82 283.745 217.526 282.596 218.005C281.531 218.385 280.431 218.661 279.312 218.828C277.825 218.966 276.326 218.907 274.854 218.653C273.958 218.432 273.012 218.563 272.209 219.019C271.407 219.475 270.81 220.22 270.54 221.103C270.301 221.999 270.424 222.954 270.882 223.761C271.34 224.567 272.097 225.161 272.99 225.415L272.983 225.434Z" fill="#211715"/>
<path d="M236.423 206.657C222.546 208.809 182.877 213.843 170.057 215.8L166.193 203.841C182.608 201.418 222.927 196.245 239.781 194.146L236.423 206.657Z" fill="#79C6E0"/>
<path d="M167.124 207.221C186.661 204.342 206.272 201.9 225.86 199.406C230.5 198.816 235.14 198.232 239.78 197.653C240.701 197.626 241.577 197.248 242.228 196.596C242.88 195.945 243.258 195.069 243.286 194.148C243.28 193.22 242.909 192.331 242.252 191.675C241.596 191.019 240.708 190.648 239.78 190.642C219.564 193.154 199.362 195.777 179.175 198.509C174.534 199.14 169.893 199.779 165.26 200.462C164.367 200.715 163.609 201.309 163.15 202.116C162.692 202.923 162.57 203.878 162.812 204.775C163.079 205.658 163.675 206.405 164.478 206.861C165.281 207.316 166.228 207.445 167.124 207.221Z" fill="#211715"/>
<path d="M170.989 219.18C188.946 216.447 206.913 214.312 224.929 211.824C229.074 211.253 233.22 210.677 237.355 210.039C238.248 209.786 239.006 209.192 239.464 208.384C239.922 207.577 240.044 206.622 239.803 205.726C239.537 204.842 238.94 204.094 238.137 203.638C237.334 203.183 236.387 203.053 235.491 203.277C217.378 206.078 199.164 208.244 181.005 210.727C177.042 211.271 173.079 211.812 169.125 212.414C168.232 212.667 167.475 213.261 167.017 214.068C166.558 214.875 166.436 215.83 166.677 216.726C166.944 217.61 167.54 218.358 168.343 218.813C169.146 219.269 170.093 219.399 170.989 219.175V219.18Z" fill="#211715"/>
<path d="M272.547 216.894C271.408 219.649 266.535 220.478 263.783 220.108C262.065 219.899 260.401 219.374 258.875 218.56C257.598 217.845 257.009 217.299 256.83 216.339C256.327 213.6 252.754 213.151 250.969 214.792C250.338 215.377 251.352 214.575 250.92 214.855C250.711 214.99 250.497 215.111 250.286 215.236C249.736 215.562 250.499 215.187 250.119 215.33C249.862 215.427 249.6 215.513 249.335 215.586C248.996 215.682 248.045 215.865 248.093 215.859C248.461 215.815 247.554 215.885 247.474 215.888C247.162 215.9 246.853 215.898 246.542 215.888C244.494 215.854 242.538 215.035 241.078 213.599C240.74 213.261 240.452 212.876 240.225 212.455C240.026 212.14 239.854 211.808 239.711 211.463C239.85 211.845 239.742 211.421 239.697 211.252C239.651 211.082 239.608 210.447 239.662 211.122C239.638 210.829 239.629 210.537 239.626 210.245C239.619 209.672 239.65 209.099 239.721 208.53C239.926 207.557 240.186 206.597 240.501 205.654C240.664 205.309 241.192 204.474 241.187 204.485C241.181 204.497 241.536 204.469 241.143 204.496C241.791 204.452 240.705 204.557 241.41 204.371C241.923 204.221 242.394 203.956 242.791 203.598C243.187 203.24 243.497 202.797 243.699 202.302C243.9 201.807 243.988 201.273 243.954 200.74C243.921 200.207 243.768 199.688 243.506 199.222C243.163 198.462 243.007 197.63 243.05 196.797C243.094 195.963 243.335 195.152 243.755 194.431C244.453 193.04 245.507 191.859 246.81 191.009C248.203 190.06 249.883 189.627 251.56 189.786C253.237 189.945 254.806 190.685 255.996 191.878C259.101 195.164 264.053 190.199 260.953 186.92C258.584 184.564 255.463 183.112 252.135 182.817C248.806 182.522 245.479 183.402 242.732 185.304C237.073 189.171 234.304 196.431 237.451 202.76L239.546 197.611C235.509 198.669 233.573 203.029 232.944 206.802C232.498 208.735 232.503 210.744 232.959 212.674C233.415 214.605 234.309 216.404 235.573 217.933C240.287 223.558 250.376 224.854 255.93 219.747L250.071 218.2C251.163 224.154 258.6 226.582 263.781 227.111C270.045 227.757 276.814 224.758 279.302 218.75C279.543 217.853 279.422 216.898 278.964 216.09C278.505 215.283 277.747 214.689 276.854 214.437C275.958 214.214 275.01 214.343 274.207 214.799C273.404 215.255 272.807 216.002 272.54 216.886L272.547 216.894Z" fill="#211715"/>
<path d="M205.127 260.98C209.132 259.243 213.091 257.396 217.074 255.611C217.755 255.306 218.441 255.013 219.119 254.698C219.604 254.474 218.438 254.983 218.51 254.954C219.106 254.701 219.692 254.446 220.263 254.14C221.304 253.575 222.291 252.917 223.212 252.173C225.84 250.014 227.59 246.971 228.135 243.614C229.122 238.571 229.826 233.477 230.244 228.355C230.236 227.428 229.864 226.541 229.208 225.885C228.553 225.23 227.666 224.858 226.738 224.85C225.814 224.867 224.933 225.242 224.279 225.896C223.625 226.55 223.25 227.431 223.233 228.355C222.917 232.491 222.225 236.556 221.564 240.646C221.393 241.985 221.07 243.3 220.603 244.567C220.833 244.004 220.545 244.637 220.434 244.838C220.361 244.97 219.873 245.737 220.01 245.55C220.147 245.363 219.636 245.973 219.516 246.098C219.219 246.411 218.901 246.704 218.564 246.974C218.272 247.206 217.064 247.785 216.501 248.203C215.917 248.641 217.378 247.868 216.18 248.391C215.981 248.479 215.778 248.56 215.58 248.647C214.93 248.93 214.286 249.222 213.641 249.513C211.336 250.545 209.034 251.58 206.733 252.618C205.019 253.39 203.312 254.181 201.589 254.929C200.79 255.402 200.21 256.171 199.975 257.069C199.739 257.967 199.867 258.921 200.331 259.725C200.816 260.51 201.584 261.079 202.477 261.313C203.37 261.547 204.319 261.429 205.127 260.983V260.98Z" fill="#211715"/>
<path d="M109.353 267.024C109.465 266.112 109.46 265.189 109.338 264.278C108.418 260.188 103.408 255.689 100.968 246.267C99.4052 240.263 99.9019 235.107 100.033 228.899C100.006 223.98 100.595 219.078 101.786 214.306C102.533 211.047 104.237 208.087 106.68 205.804C109.236 203.672 113.107 202.81 115.941 204.534C118.129 205.83 119.869 207.763 120.928 210.074C121.172 208.78 121.344 207.892 121.344 207.892C121.758 206.629 122.443 205.473 123.352 204.504C124.26 203.534 125.37 202.776 126.603 202.281C127.964 201.839 129.416 201.754 130.819 202.034C132.223 202.313 133.531 202.948 134.619 203.878C135.771 205.111 136.628 206.591 137.123 208.204C139.037 200.744 143.057 200.715 145.508 200.955C146.618 201.127 147.677 201.538 148.614 202.159C149.55 202.78 150.341 203.596 150.932 204.551C151.114 204.815 151.294 205.09 151.468 205.371C157.11 200.43 161.087 201.375 163.18 203.587C165.439 206.413 167.046 209.702 167.888 213.221L169.869 218.377C170.432 217.295 171.22 216.345 172.179 215.592C173.139 214.839 174.249 214.299 175.434 214.009C177.269 213.659 179.148 213.602 181.001 213.839C187.574 214.321 186.092 217.753 186.062 218.91C185.973 223.046 183.369 226.068 181.59 229.655C179.268 234.447 177.299 239.402 175.698 244.481C172.799 253.32 174.14 262.354 160.844 272.283C158.244 274.01 155.364 275.273 152.332 276.017" fill="white"/>
<path d="M112.859 267.024C113.504 261.035 108.831 256.278 106.431 251.199C102.861 243.652 103.314 235.668 103.581 227.549C103.604 223.295 104.167 219.061 105.255 214.949C106.132 211.966 107.674 208.473 110.86 207.405C113.782 206.425 116.119 208.574 117.475 211C119.176 214.384 120.388 217.992 121.074 221.716C121.634 223.887 121.87 226.128 121.775 228.367C121.762 228.98 121.619 229.582 121.357 230.136C121.785 229.406 121.701 230.171 121.065 229.933C119.669 229.191 118.575 227.985 117.973 226.524C116.87 224.568 116.141 222.424 115.822 220.202C115.794 219.281 115.415 218.406 114.764 217.755C114.112 217.103 113.237 216.725 112.317 216.696C110.616 216.696 108.56 218.311 108.811 220.202C109.49 225.33 111.338 231.058 115.374 234.577C119.318 238.008 125.853 237.751 127.95 232.406C129.689 227.97 128.562 222.482 127.389 218.037C126.211 213.567 124.751 208.52 121.743 204.916C120.3 202.996 118.308 201.559 116.031 200.796C113.753 200.033 111.298 199.98 108.989 200.644C104.011 202.22 100.92 206.418 99.1408 211.122C97.451 216.203 96.5884 221.523 96.5859 226.879C96.2021 232.034 96.2392 237.213 96.6969 242.363C97.4329 247.822 99.2351 253.083 102.001 257.846C103.912 261.206 106.221 263.543 105.846 267.02C105.852 267.948 106.223 268.836 106.879 269.492C107.535 270.148 108.423 270.52 109.351 270.526C110.275 270.505 111.154 270.129 111.807 269.476C112.46 268.823 112.836 267.943 112.857 267.02L112.859 267.024Z" fill="#211715"/>
<path d="M124.724 208.818C124.763 208.63 124.816 208.444 124.883 208.264C124.751 208.592 124.784 208.556 124.981 208.149C125.18 207.793 125.413 207.457 125.678 207.147C126.18 206.517 126.816 206.007 127.541 205.655C128.303 205.366 129.128 205.279 129.934 205.4C130.741 205.522 131.503 205.849 132.146 206.351C133.687 207.75 134.146 210.285 134.665 212.194C135.425 214.917 136.003 217.689 136.396 220.489C136.892 223.202 137.088 225.961 136.98 228.716C136.856 229.72 136.598 230.703 136.212 231.638C136.031 232.031 135.829 232.415 135.607 232.786C135.326 233.204 135.317 233.219 135.579 232.831C135.33 233.056 135.303 233.089 135.499 232.93C136.01 232.86 134.554 233.391 135.376 233.039C134.969 233.202 134.544 233.319 134.111 233.388C134.776 233.268 133.452 233.401 133.299 233.398C133.055 233.398 132.812 233.379 132.568 233.356C132.828 233.395 132.833 233.395 132.583 233.356C131.847 233.277 131.138 233.038 130.505 232.655C129.871 232.273 129.33 231.756 128.918 231.141C126.518 227.333 120.446 230.849 122.863 234.679C124.213 236.754 126.144 238.385 128.416 239.369C130.687 240.353 133.198 240.646 135.635 240.211C140.819 239.366 143.207 234.647 143.857 229.84C144.094 226.901 143.965 223.945 143.473 221.039C143.133 218.033 142.605 215.051 141.891 212.112C140.515 206.561 138.638 200.487 132.46 198.806C126.493 197.182 119.477 200.718 117.964 206.953C116.899 211.335 123.661 213.206 124.724 208.816V208.818Z" fill="#211715"/>
<path d="M141.123 207.17C141.42 206.351 141.895 205.608 142.515 204.995C142.931 204.612 142.968 204.617 143.756 204.411C143.932 204.366 143.369 204.373 144.028 204.392C144.355 204.401 144.681 204.382 145.007 204.408C145.36 204.437 145.032 204.314 145.591 204.518C146 204.645 146.386 204.837 146.735 205.086C149.669 207.332 150.561 211.585 151.224 215.019C152.015 218.709 152.402 222.474 152.376 226.248C152.377 227.997 151.903 229.713 151.005 231.214C150.927 231.34 150.412 232.038 150.728 231.652C150.49 231.942 150.235 232.217 149.965 232.476C149.867 232.57 149.234 233.131 149.547 232.875C149.839 232.641 149.098 233.185 148.945 233.28C148.723 233.418 148.494 233.54 148.267 233.668C147.724 233.976 147.683 233.836 148.308 233.683C148.171 233.716 148.016 233.845 147.87 233.838C148.419 233.864 148.058 233.814 147.506 233.776C147.115 233.749 147.524 233.776 147.588 233.789C147.338 233.747 147.09 233.687 146.844 233.623C146.465 233.516 146.091 233.389 145.725 233.243C144.888 232.89 144.188 232.275 143.73 231.49C141.476 227.583 135.415 231.11 137.677 235.03C140.189 239.387 146.386 242.187 151.155 240.034C153.067 239.119 154.749 237.788 156.08 236.138C157.41 234.488 158.355 232.562 158.844 230.5C160.204 225.012 159.094 219.007 158.066 213.555C157.043 208.15 155.065 202.055 150.157 198.961C148.861 198.177 147.417 197.667 145.916 197.461C144.415 197.256 142.888 197.36 141.428 197.766C137.759 198.807 135.702 201.952 134.362 205.302C134.122 206.198 134.244 207.153 134.703 207.961C135.161 208.768 135.919 209.362 136.812 209.614C137.708 209.839 138.655 209.71 139.459 209.254C140.262 208.798 140.858 208.05 141.124 207.166L141.123 207.17Z" fill="#211715"/>
<path d="M155.1 206.928C155.616 206.569 156.153 206.241 156.707 205.945C156.853 205.869 156.999 205.799 157.146 205.726C157.438 205.597 157.438 205.591 157.154 205.711C156.878 205.825 156.871 205.831 157.154 205.711C157.289 205.66 157.426 205.61 157.563 205.565C158.002 205.419 158.482 205.378 158.922 205.236L158.356 205.315C158.475 205.303 158.595 205.296 158.713 205.29C158.885 205.281 159.058 205.281 159.23 205.29C159.649 205.305 160.127 205.566 159.113 205.249C159.259 205.295 159.423 205.311 159.572 205.349C159.721 205.387 159.909 205.466 160.079 205.509C160.346 205.578 159.164 205.071 159.851 205.423C159.979 205.489 160.105 205.559 160.228 205.635C160.597 205.863 160.726 206.219 160.098 205.489C160.291 205.712 160.555 205.888 160.759 206.105C160.879 206.235 160.992 206.373 161.107 206.507C161.52 206.988 160.591 205.777 160.961 206.33C161.205 206.69 161.453 207.043 161.683 207.414C162.171 208.208 162.619 209.026 163.024 209.865C163.225 210.279 163.4 210.704 163.599 211.119C163.126 210.13 163.549 211.009 163.639 211.237C163.71 211.422 163.785 211.609 163.847 211.798C164.131 212.558 164.353 213.339 164.511 214.135C164.762 215.029 165.356 215.788 166.163 216.246C166.971 216.705 167.926 216.826 168.823 216.583C169.706 216.316 170.453 215.719 170.908 214.916C171.364 214.114 171.494 213.167 171.271 212.271C170.782 210.095 169.996 207.997 168.934 206.035C168.066 204.117 166.876 202.362 165.415 200.847C163.737 199.256 161.532 198.338 159.221 198.268C156.457 198.308 153.776 199.215 151.555 200.861C151.158 201.094 150.81 201.402 150.531 201.769C150.253 202.136 150.05 202.554 149.933 202.999C149.816 203.445 149.788 203.909 149.851 204.365C149.913 204.821 150.065 205.261 150.298 205.658C150.53 206.056 150.838 206.404 151.205 206.682C151.572 206.961 151.99 207.164 152.436 207.281C152.881 207.397 153.345 207.425 153.801 207.363C154.258 207.3 154.697 207.148 155.095 206.916L155.1 206.928Z" fill="#211715"/>
<path d="M153.27 279.397C157.681 278.225 161.797 276.139 165.35 273.274C168.903 270.409 171.813 266.829 173.893 262.766C176.92 256.796 177.527 250.091 179.581 243.793C180.843 239.953 182.345 236.196 184.079 232.545C185.878 228.732 188.679 225.241 189.358 220.99C189.489 220.303 189.562 219.606 189.574 218.906C189.446 218.859 189.45 219.772 189.513 219.287C189.623 218.68 189.697 218.067 189.735 217.451C189.784 215.871 189.239 214.331 188.208 213.133C185.287 209.823 179.152 209.728 175.192 210.477C170.466 211.371 167.682 214.801 165.621 218.865C164.816 220.645 163.798 222.321 162.59 223.856C161.119 225.414 159.465 226.787 157.664 227.946C156.88 228.433 156.313 229.201 156.079 230.093C155.845 230.986 155.962 231.934 156.406 232.742C156.88 233.539 157.649 234.118 158.546 234.354C159.444 234.589 160.398 234.462 161.202 234C164.445 231.931 167.281 229.286 169.571 226.195C171.191 223.812 172.054 220.469 174.099 218.567C175.238 217.597 176.709 217.108 178.202 217.203C179.344 217.17 180.487 217.235 181.617 217.395C181.823 217.43 182.035 217.487 182.238 217.542C182.729 217.663 183.039 217.929 183.16 217.904C182.906 217.955 182.882 217.336 183.094 217.904C183.094 217.914 182.525 216.674 182.742 217.366C182.916 217.92 182.71 217.149 182.719 217.055C182.739 217.254 182.739 217.454 182.719 217.653C182.602 218.019 182.846 216.776 182.719 217.73C182.603 218.56 182.59 219.423 182.396 220.235C181.571 223.661 179.105 226.662 177.646 229.848C176.039 233.354 174.568 236.93 173.294 240.564C171.381 246.022 170.757 251.841 168.729 257.245C167.249 260.987 164.91 264.33 161.901 267.003C158.892 269.677 155.297 271.606 151.406 272.635C147.024 273.704 148.881 280.468 153.27 279.397Z" fill="#211715"/>
<path d="M148.366 420.667C143.359 424.875 138.246 428.973 132.969 432.838C128.238 436.469 123.112 439.553 117.688 442.032C106.495 446.777 93.9794 447.384 82.3802 443.744C78.2319 442.335 74.4142 440.096 71.16 437.163C67.9059 434.23 65.2837 430.664 63.4534 426.684C60.4554 419.795 59.0963 412.305 59.483 404.802C59.6569 397.498 61.1804 390.996 62.9742 383.38C65.1537 374.13 67.7319 364.975 70.5204 355.892C76.1618 337.517 82.6446 319.385 89.8023 301.552C92.6011 294.571 95.3049 288.113 98.4586 281.236C100.352 276.834 102.533 272.562 104.99 268.447C105.159 268.177 105.337 267.911 105.514 267.645C105.597 267.518 105.695 267.4 105.776 267.273C106.154 266.675 105.352 267.806 105.575 267.525L102.165 268.428C117.388 273.269 132.672 277.975 147.74 283.304C149.44 283.906 151.138 284.518 152.823 285.158C153.473 285.405 154.12 285.655 154.765 285.913C155.087 286.043 155.409 286.174 155.732 286.308C155.03 286.015 155.628 286.265 155.948 286.407L154.212 283.379C151.928 305.336 148.039 327.097 142.578 348.487C141.491 352.869 148.251 354.735 149.339 350.351C154.93 328.347 158.902 305.963 161.224 283.379C161.237 282.764 161.083 282.157 160.777 281.624C160.47 281.09 160.025 280.651 159.487 280.352C153.381 277.657 146.982 275.593 140.66 273.475C132.418 270.713 124.14 268.057 115.856 265.42C111.916 264.167 107.975 262.916 104.033 261.666C103.436 261.491 102.803 261.483 102.202 261.642C101.601 261.801 101.054 262.121 100.622 262.568C98.0965 266.037 95.9671 269.778 94.2736 273.72C91.0483 280.44 88.1224 287.296 85.2827 294.182C77.7979 312.338 71.0906 330.796 65.161 349.558C62.1401 359.126 59.3384 368.768 56.9457 378.513C55.0059 386.41 53.028 394.467 52.5635 402.615C51.5702 420.11 57.5154 438.866 73.8203 447.605C85.5573 453.896 99.3307 454.032 112.074 451.185C124.653 448.368 135.137 440.175 145.046 432.366C147.841 430.163 150.6 427.916 153.324 425.625C153.975 424.964 154.339 424.073 154.339 423.146C154.339 422.218 153.975 421.328 153.324 420.667C152.657 420.028 151.769 419.671 150.845 419.671C149.921 419.671 149.033 420.028 148.366 420.667Z" fill="#211715"/>
<path d="M265.87 163.243C266.567 165.753 267.124 168.3 267.538 170.872L267.414 169.94C267.464 170.289 267.473 170.642 267.442 170.993L267.568 170.061C267.544 170.223 267.505 170.382 267.452 170.536L267.804 169.698C267.758 169.804 267.703 169.907 267.638 170.003L268.186 169.293C268.112 169.384 268.029 169.466 267.937 169.539L268.646 168.991C268.452 169.111 268.251 169.218 268.042 169.311L268.879 168.957C268.551 169.095 268.208 169.193 267.857 169.249L268.789 169.124C268.471 169.161 268.15 169.161 267.832 169.124L268.764 169.248C268.403 169.198 268.05 169.111 267.689 169.062C266.775 168.849 265.816 168.974 264.988 169.416C264.185 169.885 263.602 170.654 263.366 171.553C263.13 172.452 263.261 173.409 263.73 174.211C263.953 174.607 264.253 174.953 264.613 175.229C264.973 175.505 265.385 175.706 265.825 175.818C266.609 175.925 267.37 176.125 268.162 176.16C269.346 176.168 270.514 175.892 271.57 175.357C272.232 175.061 272.818 174.62 273.286 174.067C273.754 173.514 274.092 172.863 274.274 172.162C274.513 171.011 274.501 169.821 274.237 168.675C273.823 166.217 273.254 163.78 272.622 161.371C272.375 160.475 271.781 159.713 270.973 159.254C270.164 158.795 269.206 158.675 268.309 158.923C267.412 159.17 266.651 159.763 266.191 160.572C265.732 161.381 265.613 162.339 265.86 163.235L265.87 163.243Z" fill="#211715"/>
<path d="M225.583 141.948C224.338 145.996 225.145 155.308 232.819 156.101C242.956 156.041 243.495 144.782 240.082 139.488C237.289 135.154 229.074 133.351 225.583 141.948Z" fill="#211715"/>
<path d="M306.422 141.948C307.668 145.997 306.86 155.309 299.187 156.101C289.051 156.04 288.512 144.782 291.923 139.488C294.717 135.154 302.932 133.351 306.422 141.948Z" fill="#211715"/>
<path d="M184.406 268.866C188.079 267.184 191.758 265.515 195.443 263.857C196.917 263.195 198.393 262.539 199.871 261.888C200.493 261.616 201.116 261.344 201.739 261.073C202.408 260.781 201.945 260.978 201.516 261.063C201.936 261.063 201.939 261.063 201.527 261.031C201.187 260.861 201.195 260.881 201.554 261.091C202.358 261.552 203.312 261.678 204.209 261.443C205.106 261.208 205.874 260.63 206.349 259.833C206.799 259.026 206.919 258.076 206.685 257.182C206.451 256.288 205.88 255.519 205.092 255.036C203.937 254.293 202.567 253.96 201.2 254.091C200.043 254.274 198.921 254.634 197.874 255.16C196.289 255.847 194.712 256.548 193.135 257.252C189.037 259.084 184.946 260.937 180.865 262.811C180.065 263.284 179.484 264.053 179.249 264.951C179.013 265.85 179.142 266.805 179.607 267.609C180.095 268.392 180.863 268.958 181.756 269.192C182.648 269.426 183.597 269.309 184.406 268.866Z" fill="#211715"/>
</svg>
