<svg width="185" height="115" viewBox="0 0 185 115" fill="none" xmlns="http://www.w3.org/2000/svg">
<path d="M69.8149 111.055C69.8149 111.374 69.6958 111.635 69.4576 111.838C69.2195 112.041 68.8858 112.171 68.4566 112.227V112.254C68.9434 112.31 69.3117 112.439 69.5617 112.641C69.8116 112.843 69.9366 113.107 69.9366 113.432C69.9366 113.893 69.7338 114.251 69.3281 114.508C68.9225 114.765 68.3532 114.894 67.6204 114.894C66.9321 114.894 66.3747 114.805 65.9481 114.628V114.062C66.2072 114.167 66.4853 114.248 66.7823 114.303C67.0794 114.358 67.3561 114.385 67.6126 114.385C68.1308 114.385 68.5214 114.303 68.7844 114.139C69.0474 113.976 69.1789 113.74 69.1789 113.432C69.1789 113.138 69.0311 112.916 68.7353 112.764C68.4396 112.613 67.9986 112.537 67.4124 112.537H66.5919V112.018H67.3692C67.9371 112.018 68.3617 111.937 68.6431 111.774C68.9244 111.612 69.0651 111.392 69.0651 111.116C69.0651 110.878 68.9611 110.69 68.753 110.552C68.5449 110.414 68.2642 110.345 67.9109 110.345C67.6126 110.345 67.3437 110.375 67.1042 110.436C66.8648 110.497 66.6024 110.607 66.3171 110.766L65.9717 110.345C66.5239 110.004 67.1729 109.833 67.9188 109.833C68.5076 109.833 68.9709 109.943 69.3085 110.163C69.6461 110.383 69.8149 110.681 69.8149 111.055Z" fill="white"/>
<path d="M81.8756 114.894C81.5799 114.894 81.3195 114.86 81.0944 114.793V114.207C81.3326 114.299 81.5851 114.345 81.852 114.345C82.1321 114.345 82.3578 114.289 82.5292 114.176C82.7006 114.064 82.8662 113.86 83.0258 113.564L80.8157 109.904H81.6087L83.2496 112.641C83.315 112.747 83.3713 112.863 83.4184 112.991H83.4498L83.4812 112.911L83.6029 112.634L84.9769 109.904H85.7424L83.9091 113.426C83.6919 113.843 83.4943 114.147 83.3163 114.338C83.1384 114.529 82.9349 114.669 82.7059 114.759C82.4769 114.849 82.2001 114.894 81.8756 114.894Z" fill="white"/>
<path d="M100.818 113.385C100.818 113.87 100.648 114.231 100.308 114.469C99.9673 114.707 99.4465 114.826 98.7451 114.826H97.0649V109.904H100.472V110.449H97.7873V111.985H98.6391C99.3719 111.985 99.9182 112.096 100.278 112.318C100.638 112.54 100.818 112.896 100.818 113.385ZM97.7873 114.294H98.6705C99.1625 114.294 99.5191 114.223 99.7403 114.081C99.9614 113.938 100.072 113.706 100.072 113.385C100.072 113.071 99.9568 112.849 99.7265 112.719C99.4962 112.588 99.105 112.523 98.5528 112.523H97.7873V114.294Z" fill="white"/>
<path d="M117.089 113.385C117.089 113.85 116.917 114.206 116.572 114.454C116.228 114.702 115.722 114.826 115.055 114.826H113.359V109.904H114.082V111.985H114.965C115.658 111.985 116.186 112.102 116.547 112.338C116.908 112.574 117.089 112.923 117.089 113.385ZM114.082 114.301H114.988C115.454 114.301 115.796 114.225 116.013 114.074C116.23 113.922 116.339 113.693 116.339 113.385C116.339 113.085 116.226 112.867 116.001 112.732C115.776 112.597 115.405 112.53 114.886 112.53H114.082L114.082 114.301ZM118.698 114.826H117.972V109.904H118.698V114.826Z" fill="white"/>
<path d="M5.92035 89.6862C5.00513 89.6862 4.14711 89.7843 3.34629 89.9805C2.54547 90.1768 1.86858 90.4384 1.31563 90.7655L0.629215 89.3673C1.12496 89.0893 1.84951 88.8318 2.80287 88.5946C3.75623 88.3575 4.80492 88.239 5.94895 88.239C6.92138 88.239 7.808 88.3248 8.60882 88.4965C9.40964 88.6682 10.0961 88.9299 10.6681 89.2815C11.2401 89.633 11.6882 90.0787 12.0123 90.6183C12.3365 91.1579 12.4985 91.7957 12.4985 92.5316C12.4985 92.9731 12.4127 93.3983 12.2411 93.8071C12.0695 94.2159 11.8216 94.5921 11.4975 94.9355C11.1733 95.2789 10.7634 95.5773 10.2677 95.8308C9.77192 96.0843 9.1999 96.2682 8.55161 96.3827C9.18083 96.4808 9.79098 96.6443 10.3821 96.8733C10.9731 97.1022 11.488 97.4007 11.9265 97.7686C12.365 98.1366 12.7178 98.5863 12.9847 99.1177C13.2517 99.6492 13.3851 100.267 13.3851 100.97C13.3851 101.885 13.1945 102.658 12.8131 103.288C12.4318 103.917 11.9027 104.432 11.2258 104.833C10.5489 105.234 9.73855 105.524 8.79472 105.704C7.8509 105.884 6.8165 105.974 5.69155 105.974C4.96699 105.974 4.29964 105.933 3.68949 105.851C3.07934 105.769 2.53116 105.667 2.04495 105.544C1.55874 105.422 1.14402 105.299 0.800815 105.176C0.457606 105.054 0.190669 104.943 0 104.845L0.629215 103.398C0.819884 103.496 1.0773 103.607 1.40144 103.729C1.72558 103.852 2.10216 103.975 2.53116 104.097C2.96018 104.22 3.44162 104.322 3.9755 104.404C4.50938 104.486 5.09093 104.526 5.72014 104.526C6.54003 104.526 7.29318 104.465 7.9796 104.342C8.66602 104.22 9.2571 104.015 9.75284 103.729C10.2486 103.443 10.6347 103.075 10.9112 102.625C11.1876 102.176 11.3259 101.624 11.3259 100.97C11.3259 100.217 11.1543 99.6042 10.8111 99.13C10.4679 98.6558 9.99595 98.2837 9.39533 98.0139C8.79472 97.7441 8.08446 97.556 7.26458 97.4497C6.44469 97.3434 5.5676 97.2903 4.63331 97.2903H3.31768V95.8676H5.00512C5.63434 95.8676 6.27309 95.8144 6.92137 95.7081C7.56965 95.6018 8.15597 95.4261 8.68031 95.1808C9.20466 94.9355 9.63367 94.6002 9.96735 94.1751C10.301 93.7499 10.4679 93.2184 10.4679 92.5806C10.4679 91.7466 10.0865 91.0557 9.32383 90.5079C8.56114 89.9601 7.42666 89.6862 5.92035 89.6862Z" fill="white"/>
<path d="M30.8888 105.606C30.5266 104.772 30.1833 103.97 29.8592 103.202C29.5351 102.433 29.2204 101.681 28.9154 100.945H19.2769C18.9528 101.681 18.6287 102.433 18.3045 103.202C17.9804 103.97 17.6467 104.772 17.3035 105.606H15.2728C16.0355 103.84 16.7505 102.192 17.4179 100.663C18.0852 99.1341 18.7383 97.6868 19.377 96.3214C20.0158 94.9559 20.6498 93.6436 21.279 92.3844C21.9082 91.1253 22.5755 89.8661 23.281 88.6069H24.9971C25.7026 89.8661 26.3699 91.1253 26.9991 92.3844C27.6283 93.6436 28.2623 94.9559 28.9011 96.3214C29.5398 97.6868 30.1929 99.1341 30.8602 100.663C31.5276 102.192 32.2521 103.84 33.0339 105.606H30.8888ZM24.0819 90.5202C23.3573 91.9265 22.6566 93.3574 21.9797 94.8128C21.3028 96.2682 20.6021 97.8381 19.8776 99.5225H28.3148C27.5902 97.8381 26.8847 96.2682 26.1983 94.8128C25.5119 93.3574 24.8064 91.9265 24.0819 90.5202Z" fill="white"/>
<path d="M37.8388 96.628V104.134C38.201 104.167 38.6348 104.203 39.1401 104.244C39.6454 104.285 40.2603 104.306 40.9849 104.306C41.8429 104.306 42.6628 104.248 43.4445 104.134C44.2263 104.02 44.9079 103.815 45.4895 103.521C46.071 103.226 46.5382 102.834 46.8909 102.343C47.2436 101.853 47.42 101.231 47.42 100.479C47.42 99.6942 47.2532 99.0523 46.9195 98.5536C46.5858 98.0548 46.1092 97.6623 45.4895 97.3761C44.8698 97.09 44.1214 96.8937 43.2443 96.7874C42.3672 96.6811 41.3853 96.628 40.2984 96.628H37.8388ZM40.5558 95.2053C41.9668 95.2053 43.2252 95.3034 44.3311 95.4997C45.437 95.6959 46.3666 96.0025 47.1197 96.4195C47.8729 96.8365 48.4496 97.3802 48.85 98.0507C49.2505 98.7212 49.4507 99.5225 49.4507 100.455C49.4507 102.237 48.7261 103.566 47.277 104.441C45.8279 105.315 43.7019 105.753 40.899 105.753C40.0982 105.753 39.2354 105.716 38.3107 105.643C37.3859 105.569 36.5803 105.45 35.8939 105.287V88.6069H47.6774V90.0541H37.8388V95.2053H40.5558Z" fill="white"/>
<path d="M71.1872 97.0941C71.1872 98.5495 70.9393 99.8332 70.4436 100.945C69.9478 102.057 69.2757 102.985 68.4272 103.729C67.5787 104.473 66.592 105.033 65.467 105.41C64.3421 105.786 63.1504 105.974 61.8919 105.974C60.6335 105.974 59.4418 105.786 58.3168 105.41C57.1919 105.033 56.2051 104.473 55.3567 103.729C54.5082 102.985 53.836 102.057 53.3403 100.945C52.8446 99.8332 52.5967 98.5495 52.5967 97.0941C52.5967 95.6386 52.8445 94.359 53.3403 93.2552C53.836 92.1514 54.5082 91.2275 55.3567 90.4834C56.2051 89.7393 57.1919 89.1792 58.3168 88.8031C59.4418 88.427 60.6335 88.239 61.8919 88.239C63.1504 88.239 64.342 88.427 65.467 88.8031C66.592 89.1792 67.5787 89.7393 68.4272 90.4834C69.2757 91.2274 69.9478 92.1514 70.4436 93.2552C70.9393 94.359 71.1872 95.6386 71.1872 97.0941ZM69.1279 97.0941C69.1279 95.9493 68.9563 94.9232 68.6131 94.0156C68.2699 93.108 67.7837 92.3353 67.1545 91.6976C66.5253 91.0598 65.7673 90.5733 64.8807 90.2381C63.9941 89.9029 62.9978 89.7352 61.8919 89.7352C60.786 89.7352 59.7898 89.9029 58.9032 90.2381C58.0165 90.5733 57.2586 91.0598 56.6294 91.6976C56.0002 92.3354 55.514 93.108 55.1708 94.0156C54.8275 94.9232 54.656 95.9493 54.656 97.0941C54.656 98.2388 54.8275 99.2649 55.1708 100.172C55.514 101.08 56.0002 101.853 56.6294 102.49C57.2586 103.128 58.0165 103.619 58.9032 103.962C59.7898 104.306 60.786 104.477 61.8919 104.477C62.9978 104.477 63.9941 104.306 64.8807 103.962C65.7673 103.619 66.5253 103.128 67.1545 102.49C67.7837 101.853 68.2699 101.08 68.6131 100.172C68.9563 99.2649 69.1279 98.2388 69.1279 97.0941Z" fill="white"/>
<path d="M88.1188 88.6069V90.0541H81.7694V105.606H79.8246V90.0541H73.4752V88.6069H88.1188Z" fill="white"/>
<path d="M97.0995 90.0541V90.5447C97.0995 92.3435 97.028 94.077 96.885 95.7449C96.7419 97.4129 96.4035 99.0073 95.8696 100.528C95.6217 101.231 95.3119 101.894 94.9401 102.515C94.5683 103.136 94.1155 103.684 93.5816 104.159C93.0477 104.633 92.4232 105.017 91.7082 105.311C90.9932 105.606 90.1686 105.769 89.2343 105.802L89.0341 104.379C89.6823 104.314 90.2591 104.179 90.7644 103.975C91.2697 103.77 91.7178 103.496 92.1086 103.153C92.4995 102.809 92.8427 102.396 93.1383 101.914C93.4338 101.432 93.7055 100.872 93.9534 100.234C94.4491 98.9092 94.778 97.4129 94.9401 95.7449C95.1022 94.077 95.1832 92.2045 95.1832 90.1277V88.6069H105.508V105.606H103.563V90.0541H97.0995Z" fill="white"/>
<path d="M110.656 105.606V88.6069H112.572V102.441C113.164 101.542 113.922 100.487 114.846 99.2772C115.771 98.0671 116.767 96.8283 117.835 95.561C118.903 94.2936 119.994 93.0508 121.11 91.8325C122.225 90.6142 123.269 89.539 124.242 88.6069H125.786V105.606H123.87V91.2806C123.298 91.8366 122.669 92.4989 121.982 93.2675C121.296 94.0361 120.585 94.8578 119.851 95.7327C119.117 96.6076 118.378 97.507 117.635 98.4309C116.891 99.3549 116.186 100.254 115.518 101.129C114.851 102.004 114.236 102.826 113.674 103.594C113.111 104.363 112.649 105.033 112.286 105.606L110.656 105.606Z" fill="white"/>
<path d="M135.682 105.753C135.358 105.753 134.981 105.741 134.552 105.716C134.123 105.692 133.685 105.659 133.236 105.618C132.788 105.577 132.364 105.528 131.964 105.471C131.563 105.414 131.22 105.352 130.934 105.287V88.9258C131.277 88.844 131.659 88.7745 132.078 88.7173C132.498 88.66 132.931 88.611 133.379 88.5701C133.828 88.5292 134.266 88.5006 134.695 88.4842C135.124 88.4679 135.52 88.4597 135.882 88.4597C136.95 88.4597 137.965 88.5333 138.928 88.6805C139.891 88.8277 140.735 89.073 141.459 89.4164C142.184 89.7598 142.76 90.2136 143.19 90.7777C143.619 91.3419 143.833 92.041 143.833 92.875C143.833 93.7908 143.561 94.5716 143.018 95.2176C142.474 95.8635 141.745 96.3091 140.83 96.5544C141.402 96.6689 141.926 96.8324 142.403 97.045C142.88 97.2576 143.299 97.5315 143.661 97.8667C144.024 98.202 144.305 98.6108 144.505 99.0932C144.705 99.5756 144.805 100.152 144.805 100.823C144.805 102.425 144.062 103.647 142.575 104.49C141.087 105.332 138.79 105.753 135.682 105.753ZM132.879 97.462V104.159C133.165 104.191 133.594 104.228 134.166 104.269C134.738 104.31 135.32 104.33 135.911 104.33C136.788 104.33 137.641 104.281 138.47 104.183C139.3 104.085 140.029 103.905 140.658 103.643C141.288 103.382 141.793 103.022 142.174 102.564C142.556 102.106 142.746 101.518 142.746 100.798C142.746 100.144 142.613 99.6001 142.346 99.1668C142.079 98.7334 141.697 98.39 141.202 98.1366C140.706 97.8831 140.101 97.7073 139.386 97.6092C138.671 97.5111 137.875 97.462 136.997 97.462L132.879 97.462ZM132.879 96.0393H136.654C137.36 96.0393 138.027 95.9943 138.656 95.9044C139.286 95.8144 139.834 95.6509 140.301 95.4138C140.768 95.1767 141.135 94.8578 141.402 94.4571C141.669 94.0565 141.802 93.5455 141.802 92.9241C141.802 92.3681 141.659 91.8979 141.373 91.5136C141.087 91.1293 140.682 90.8145 140.158 90.5692C139.633 90.3239 139.009 90.1482 138.284 90.0419C137.56 89.9356 136.759 89.8824 135.882 89.8824C135.177 89.8824 134.581 89.8988 134.094 89.9315C133.608 89.9642 133.203 90.0051 132.879 90.0541V96.0393Z" fill="white"/>
<path d="M165.369 88.6069H167.314V105.606H165.369V88.6069ZM153.901 96.4072C153.271 96.4072 152.695 96.4236 152.17 96.4563C151.646 96.489 151.222 96.5217 150.897 96.5544V104.134C151.26 104.167 151.689 104.203 152.185 104.244C152.68 104.285 153.262 104.306 153.929 104.306C154.749 104.306 155.536 104.248 156.289 104.134C157.042 104.02 157.7 103.815 158.262 103.521C158.825 103.226 159.273 102.822 159.606 102.307C159.94 101.791 160.107 101.133 160.107 100.332C160.107 99.5634 159.945 98.9256 159.621 98.4186C159.297 97.9117 158.858 97.5111 158.305 97.2167C157.752 96.9224 157.099 96.7139 156.346 96.5912C155.593 96.4686 154.778 96.4072 153.901 96.4072ZM153.786 94.96C156.57 94.96 158.658 95.4097 160.05 96.3091C161.442 97.2085 162.138 98.5495 162.138 100.332C162.138 102.049 161.465 103.382 160.121 104.33C158.777 105.279 156.684 105.753 153.843 105.753C153.1 105.753 152.27 105.716 151.355 105.643C150.44 105.569 149.639 105.45 148.953 105.287V88.6069H150.897V95.1072C151.05 95.0908 151.25 95.0745 151.498 95.0581C151.746 95.0418 152.003 95.0254 152.27 95.0091C152.537 94.9927 152.804 94.9804 153.071 94.9723C153.338 94.9641 153.576 94.96 153.786 94.96Z" fill="white"/>
<path d="M172.462 105.606V88.6069H183.903V90.0541H174.407V95.9657H182.873V97.3884H174.407V104.159H184.646V105.606H172.462Z" fill="white"/>
<path fill-rule="evenodd" clip-rule="evenodd" d="M99.8766 56.6753C101.209 52.914 102.13 49.0289 104.518 45.5438C105.994 53.4282 105.506 61.2079 103.896 68.959C103.863 69.1175 103.802 69.2862 103.74 69.4586C103.524 70.0524 103.293 70.6903 104.162 71.111C105.073 71.5586 105.972 71.111 106.749 70.673C110.224 68.74 112.156 65.8643 113.633 62.6362C117.408 54.409 119.495 45.8009 121.494 37.1833C121.934 35.2725 122.445 33.3708 122.957 31.4682C124.406 26.0795 125.857 20.6836 125.702 15.0536C125.624 12.1779 124.991 9.48309 123.559 6.91209C121.072 2.43664 116.164 0.341748 110.469 1.23684C107.027 1.77008 103.918 3.09367 100.765 4.25538C94.8803 6.42645 89.1513 6.12174 83.4889 3.70309C81.3794 2.80801 79.3032 1.85578 77.1493 1.04639C71.5535 -1.0485 66.6461 0.0179916 62.7601 4.10303C59.1628 7.88336 58.641 12.2922 59.0518 16.9676C59.5181 22.3191 61.128 27.4706 62.3049 32.7078C64.481 42.3919 66.1576 52.1713 70.1989 61.4935C71.5202 64.5311 73.4187 67.1878 76.1722 69.397C76.2485 69.4586 76.326 69.5252 76.405 69.5931C76.9247 70.0389 77.5153 70.5459 78.315 70.1493C79.0264 69.8066 78.8483 69.1706 78.689 68.6016C78.6668 68.5223 78.6449 68.4443 78.6259 68.3686C77.2366 62.7831 77.4562 57.1527 77.6757 51.5244C77.7598 49.371 77.8437 47.2179 77.8376 45.0677C77.8376 44.9248 78.1041 44.782 78.3817 44.4964C79.9804 46.9721 80.5023 49.6003 81.2684 52.1618C83.2669 58.8559 84.8435 65.6643 88.5407 71.9014C89.1846 72.9869 89.8064 74.3676 91.3941 74.4152C92.7845 74.4537 93.2762 73.448 93.7358 72.5077C93.8451 72.2842 93.9526 72.0645 94.0698 71.8633C94.7471 70.7016 95.3466 69.5017 95.8018 68.2639C97.2119 64.4074 98.5109 60.5318 99.8766 56.6753Z" fill="white"/>
</svg>
